<?xml version="1.0" encoding="iso-8859-1"?>
<!-- Generator: Adobe Illustrator 19.0.0, SVG Export Plug-In . SVG Version: 6.00 Build 0)  -->
<svg version="1.1" id="Layer_1" xmlns="http://www.w3.org/2000/svg" xmlns:xlink="http://www.w3.org/1999/xlink" x="0px" y="0px"
	 viewBox="0 0 512 512" style="enable-background:new 0 0 512 512;" xml:space="preserve">
<path style="fill:#333C49;" d="M512,447.206c0,4.626-1.766,9.249-5.294,12.774c-3.53,3.535-8.151,5.297-12.774,5.297H18.071
	c-4.626,0-9.247-1.761-12.774-5.297C1.766,456.458,0,451.832,0,447.206V183.68h512V447.206z"/>
<path style="fill:#3F4A5A;" d="M512,183.68c0,26.207-9.999,52.413-29.996,72.41c-19.994,19.996-46.2,29.993-72.405,29.993H102.4
	c-26.204,0-52.413-9.997-72.404-29.993C9.999,236.091,0,209.884,0,183.68v-58.729c0-4.623,1.766-9.249,5.297-12.777
	c3.528-3.528,8.151-5.294,12.774-5.294h475.858c4.626,0,9.244,1.764,12.774,5.294c3.528,3.528,5.294,8.156,5.294,12.777v58.729H512z
	"/>
<g>
	<path style="fill:#333C49;" d="M344.317,106.88h-23.035V83.84c0-3.763-1.464-7.301-4.127-9.958
		c-2.655-2.662-6.198-4.124-9.956-4.124H204.8c-3.766,0-7.296,1.464-9.958,4.127c-2.655,2.657-4.124,6.193-4.124,9.956v23.037
		h-23.032V83.84c0-9.915,3.858-19.236,10.87-26.25c7.012-7.012,16.328-10.87,26.245-10.87h102.4c9.912,0,19.233,3.858,26.245,10.87
		c7.012,7.014,10.872,16.335,10.872,26.25V106.88z"/>
	<rect x="51.84" y="96.64" style="fill:#333C49;" width="64" height="10.237"/>
	<rect x="396.16" y="96.64" style="fill:#333C49;" width="64" height="10.237"/>
</g>
<rect x="227.84" y="251.52" style="fill:#FFFFFF;" width="56.317" height="69.12"/>
<rect x="227.84" y="106.88" style="fill:#333C49;" width="56.317" height="144.64"/>
<rect x="227.84" y="320.64" style="fill:#3F4A5A;" width="56.317" height="144.64"/>
<g>
</g>
<g>
</g>
<g>
</g>
<g>
</g>
<g>
</g>
<g>
</g>
<g>
</g>
<g>
</g>
<g>
</g>
<g>
</g>
<g>
</g>
<g>
</g>
<g>
</g>
<g>
</g>
<g>
</g>
</svg>
