<?xml version="1.0" encoding="utf-8"?>
<!-- Generator: Adobe Illustrator 23.0.1, SVG Export Plug-In . SVG Version: 6.00 Build 0)  -->
<svg version="1.1" id="Layer_1" xmlns="http://www.w3.org/2000/svg" xmlns:xlink="http://www.w3.org/1999/xlink" x="0px" y="0px"
	 viewBox="0 0 512 512" style="enable-background:new 0 0 512 512;" xml:space="preserve">
<style type="text/css">
	.st0{fill:#F2F2F2;}
	.st1{fill:#E5E5E5;}
	.st2{fill:#3F4A5A;}
	.st3{fill:#F7D04A;}
	.st4{fill:#F3B41B;}
	.st5{fill:#F67656;}
	.st6{fill:#62C9CC;}
	.st7{fill:#50A9A9;}
</style>
<path class="st0" d="M509.7,113.5L424.1,28c-1.5-1.5-3.5-2.3-5.7-2.3H93.5c-4.4,0-8,3.6-8,8V504c0,4.4,3.6,8,8,8H504
	c4.4,0,8-3.6,8-8V119.2C512,117.1,511.2,115,509.7,113.5z"/>
<g>
	<path class="st1" d="M512,118.8c-0.1-2-0.9-3.9-2.3-5.3L424.1,28c-1.5-1.5-3.5-2.3-5.7-2.3h-0.4v85.2c0,4.4,3.6,8,8,8L512,118.8
		L512,118.8z"/>
	<path class="st1" d="M93.5,25.7c-4.4,0-8,3.6-8,8V504c0,4.4,3.6,8,8,8h375.9L136.1,25.7H93.5z"/>
</g>
<path class="st2" d="M214.3,0H24C10.8,0,0,10.8,0,24.1v258.7c0,13.3,10.8,24,24,24h190.3c13.3,0,24.1-10.8,24.1-24V24.1
	C238.4,10.8,227.6,0,214.3,0z"/>
<path class="st3" d="M358.6,248c-65.7,0-119.2,53.5-119.2,119.2s53.5,119.2,119.2,119.2s119.2-53.5,119.2-119.2S424.3,248,358.6,248
	z"/>
<path class="st4" d="M382.1,462.8c-65.7,0-119.2-53.5-119.2-119.2c0-26.9,8.9-51.7,24-71.7c-28.8,21.8-47.5,56.3-47.5,95.2
	c0,65.7,53.5,119.2,119.2,119.2c38.8,0,73.4-18.7,95.2-47.5C433.8,453.9,409,462.8,382.1,462.8z"/>
<path class="st5" d="M376.9,360.2l-12.4-0.4v-44.5h28.3c4.4,0,8-3.6,8-8c0-4.4-3.6-8-8-8h-28.3v-9.1c0-4.4-3.6-8-8-8
	c-4.4,0-8,3.6-8,8v9.1h-8c-13.3,0-24,10.8-24,24v27.8c0,13.2,10.7,24,23.9,24l8.1,0.2V419h-24c-4.4,0-8,3.6-8,8s3.6,8,8,8h24v9.1
	c0,4.4,3.6,8,8,8c4.4,0,8-3.6,8-8V435h12.3c13.3,0,24-10.8,24-24v-26.7C400.8,371,390.1,360.3,376.9,360.2z M340.7,359.2
	c-0.1,0-0.2,0-0.2,0c-4.4,0-8-3.6-8-8v-27.8c0-4.4,3.6-8,8-8h8v44.1L340.7,359.2z M384.8,411c0,4.4-3.6,8-8,8h-12.3v-43.1l12.1,0.4
	c0.1,0,0.2,0,0.2,0c4.4,0,8,3.6,8,8V411z"/>
<path class="st0" d="M204.7,25.7h-171c-4.4,0-8,3.6-8,8v42.8c0,4.4,3.6,8,8,8h171c4.4,0,8-3.6,8-8V33.7
	C212.7,29.2,209.1,25.7,204.7,25.7z"/>
<g>
	<path class="st6" d="M33.7,25.7c-4.4,0-8,3.6-8,8v42.8c0,4.4,3.6,8,8,8h34.7l58.8-58.8L33.7,25.7L33.7,25.7z"/>
	<path class="st6" d="M204.7,25.7h-29.9L116,84.4h88.7c4.4,0,8-3.6,8-8V33.7C212.7,29.2,209.1,25.7,204.7,25.7z"/>
</g>
<g>
	<path class="st5" d="M67.9,94.1H33.7c-4.4,0-8,3.6-8,8v34.2c0,4.4,3.6,8,8,8h34.2c4.4,0,8-3.6,8-8v-34.2
		C75.9,97.7,72.3,94.1,67.9,94.1z"/>
	<path class="st5" d="M135.7,94.1h-34.2c-4.4,0-8,3.6-8,8v34.2c0,4.4,3.6,8,8,8h34.2c4.4,0,8-3.6,8-8v-34.2
		C143.8,97.7,140.2,94.1,135.7,94.1z"/>
	<path class="st5" d="M67.9,162.5H33.7c-4.4,0-8,3.6-8,8v34.2c0,4.4,3.6,8,8,8h34.2c4.4,0,8-3.6,8-8v-34.2
		C75.9,166.1,72.3,162.5,67.9,162.5z"/>
	<path class="st5" d="M135.7,162.5h-34.2c-4.4,0-8,3.6-8,8v34.2c0,4.4,3.6,8,8,8h34.2c4.4,0,8-3.6,8-8v-34.2
		C143.8,166.1,140.2,162.5,135.7,162.5z"/>
	<path class="st5" d="M67.9,230.9H33.7c-4.4,0-8,3.6-8,8v34.2c0,4.4,3.6,8,8,8h34.2c4.4,0,8-3.6,8-8v-34.2
		C75.9,234.5,72.3,230.9,67.9,230.9z"/>
	<path class="st5" d="M135.7,230.9h-34.2c-4.4,0-8,3.6-8,8v34.2c0,4.4,3.6,8,8,8h34.2c4.4,0,8-3.6,8-8v-34.2
		C143.8,234.5,140.2,230.9,135.7,230.9z"/>
	<path class="st5" d="M204.2,94.1H170c-4.4,0-8,3.6-8,8v34.2c0,4.4,3.6,8,8,8h34.2c4.4,0,8-3.6,8-8v-34.2
		C212.2,97.7,208.6,94.1,204.2,94.1z"/>
</g>
<path class="st3" d="M204.7,162.5h-34.2c-4.4,0-8,3.6-8,8v102.6c0,4.4,3.6,8,8,8h34.2c4.4,0,8-3.6,8-8V170.5
	C212.7,166.1,209.1,162.5,204.7,162.5z"/>
<path class="st2" d="M297.8,93c-2.2,0-4.4-0.9-5.9-2.6l-15.5-17.1c-3-3.3-2.7-8.3,0.6-11.3c3.3-3,8.3-2.7,11.3,0.6l15.5,17.1
	c3,3.3,2.7,8.3-0.6,11.3C301.7,92.3,299.8,93,297.8,93z"/>
<g>
	<path class="st6" d="M464.1,214.1L336.4,86.4c-1.1-1.1-2.5-1.9-4.1-2.2l-30.2-6c-2.6-0.5-5.3,0.3-7.2,2.2c-1.9,1.9-2.7,4.6-2.2,7.2
		l6,30.2c0.3,1.6,1.1,3,2.2,4.1l127.7,127.7c5.1,5.1,12.4,7.7,19.6,6.9c6.4-0.7,11.4-3.9,15.9-8.4
		C473.5,238.8,473.5,223.5,464.1,214.1z"/>
	<rect x="337.3" y="86" transform="matrix(0.7071 -0.7071 0.7071 0.7071 1.5145 299.62)" class="st6" width="50.2" height="123.9"/>
</g>
<path class="st3" d="M302,78.2c-5.5-1.1-10.5,3.9-9.4,9.4l6,30.2c0.3,1.6,1.1,3,2.2,4.1l35.5-35.5c-1.1-1.1-2.5-1.9-4.1-2.2
	L302,78.2z"/>
<path class="st7" d="M464.1,214.1L424,174l-35.5,35.5l40.1,40.1c5,5,12.2,7.5,19.2,6.8c6.6-0.6,11.7-3.8,16.3-8.4
	C473.5,238.8,473.5,223.5,464.1,214.1z"/>
<path class="st2" d="M451.6,221c-2.1,0-4.1-0.8-5.7-2.3c-3.1-3.1-3.1-8.2,0-11.3l12.3-12.3l-37.7-35.8c-3.2-3.1-3.3-8.1-0.3-11.3
	c3.1-3.2,8.1-3.3,11.3-0.3l43.7,41.5c1.6,1.5,2.5,3.5,2.5,5.7c0,2.2-0.8,4.2-2.3,5.8l-18.1,18.1C455.7,220.2,453.7,221,451.6,221z"
	/>
<g>
	<path class="st2" d="M198.3,383.7h-53.4c-4.4,0-8-3.6-8-8c0-4.4,3.6-8,8-8h53.4c4.4,0,8,3.6,8,8
		C206.3,380.1,202.7,383.7,198.3,383.7z"/>
	<path class="st2" d="M198.3,426.5h-53.4c-4.4,0-8-3.6-8-8s3.6-8,8-8h53.4c4.4,0,8,3.6,8,8S202.7,426.5,198.3,426.5z"/>
</g>
</svg>
