<?xml version="1.0" encoding="iso-8859-1"?>
<!-- Generator: Adobe Illustrator 19.0.0, SVG Export Plug-In . SVG Version: 6.00 Build 0)  -->
<svg version="1.1" id="Layer_1" xmlns="http://www.w3.org/2000/svg" xmlns:xlink="http://www.w3.org/1999/xlink" x="0px" y="0px"
	 viewBox="0 0 512 512" style="enable-background:new 0 0 512 512;" xml:space="preserve">
<rect x="59.136" y="119.109" style="fill:#E6E5E5;" width="389.504" height="386.022"/>
<rect x="59.136" y="31.437" style="fill:#F67656;" width="389.504" height="87.68"/>
<rect y="119.109" style="fill:#CCCBCA;" width="59.136" height="386.022"/>
<rect y="31.437" style="fill:#D65A38;" width="59.136" height="87.68"/>
<path style="fill:#EFEFEF;" d="M448.643,119.109v313.083H122.491c-34.995,0-63.355-28.375-63.355-63.375V119.109H448.643z"/>
<path style="fill:#CCCBCA;" d="M185.851,368.817c0,35-28.375,63.375-63.36,63.375h326.152c34.995,0,63.345-28.367,63.357-63.368
	L185.851,368.817z"/>
<g>
	<path style="fill:#3F4A5A;" d="M402.045,56.026V44.68c7.301,0,13.243-5.937,13.243-13.24c0-7.296-5.942-13.228-13.243-13.228
		c-7.291,0-13.22,5.932-13.22,13.228H377.48c0-13.548,11.026-24.571,24.566-24.571c13.56,0,24.586,11.026,24.586,24.571
		C426.629,44.997,415.606,56.026,402.045,56.026z"/>
	<path style="fill:#3F4A5A;" d="M342.779,56.026V44.68c7.296,0,13.233-5.937,13.233-13.24c0-7.296-5.937-13.228-13.233-13.228
		c-7.293,0-13.235,5.932-13.235,13.228h-11.341c0-13.548,11.026-24.571,24.576-24.571s24.576,11.026,24.576,24.571
		C367.355,44.997,356.329,56.026,342.779,56.026z"/>
	<path style="fill:#3F4A5A;" d="M283.52,56.026V44.68c7.301,0,13.243-5.937,13.243-13.24c0-7.296-5.942-13.228-13.243-13.228
		s-13.233,5.932-13.233,13.228h-11.343c0-13.548,11.026-24.571,24.576-24.571c13.555,0,24.586,11.026,24.586,24.571
		C308.106,44.997,297.075,56.026,283.52,56.026z"/>
	<path style="fill:#3F4A5A;" d="M224.246,56.026V44.68c7.301,0,13.24-5.937,13.24-13.24c0-7.296-5.942-13.228-13.24-13.228
		s-13.238,5.932-13.238,13.228h-11.343c0-13.548,11.026-24.571,24.581-24.571c13.558,0,24.584,11.026,24.584,24.571
		C248.829,44.997,237.804,56.026,224.246,56.026z"/>
	<path style="fill:#3F4A5A;" d="M164.987,56.026V44.68c7.301,0,13.238-5.937,13.238-13.24c0-7.296-5.937-13.228-13.238-13.228
		c-7.301,0-13.238,5.932-13.238,13.228h-11.346c0-13.548,11.031-24.571,24.584-24.571c13.553,0,24.584,11.026,24.584,24.571
		C189.571,44.997,178.542,56.026,164.987,56.026z"/>
	<path style="fill:#3F4A5A;" d="M105.72,56.026V44.68c7.291,0,13.233-5.937,13.233-13.24c0-7.296-5.942-13.228-13.233-13.228
		c-7.301,0-13.243,5.932-13.243,13.228H81.137c0-13.548,11.026-24.571,24.584-24.571c13.55,0,24.576,11.026,24.576,24.571
		C130.296,44.997,119.27,56.026,105.72,56.026z"/>
</g>
<rect x="105.677" y="180.019" style="fill:#F67656;" width="127.9" height="127.908"/>
<g>
	<path style="fill:#3F4A5A;" d="M280.274,226.708H233.58v-46.7h46.697v46.7H280.274z M239.672,220.616h34.511v-34.516h-34.511
		V220.616z"/>
	<path style="fill:#3F4A5A;" d="M320.883,226.708h-46.7v-46.7h46.7V226.708z M280.274,220.616h34.516v-34.516h-34.516V220.616z"/>
	<path style="fill:#3F4A5A;" d="M361.495,226.708h-46.702v-46.7h46.702V226.708z M320.883,220.616h34.529v-34.516h-34.529V220.616
		L320.883,220.616z"/>
	<path style="fill:#3F4A5A;" d="M402.086,226.708h-46.674v-46.7h46.674V226.708z M361.495,220.616h34.516v-34.516h-34.516V220.616z"
		/>
	<path style="fill:#3F4A5A;" d="M280.274,267.308H233.58v-46.692h46.697v46.692H280.274z M239.672,261.225h34.511v-34.516h-34.511
		V261.225z"/>
	<path style="fill:#3F4A5A;" d="M320.883,267.308h-46.7v-46.692h46.7V267.308z M280.274,261.225h34.516v-34.516h-34.516V261.225z"/>
	<path style="fill:#3F4A5A;" d="M361.495,267.308h-46.702v-46.692h46.702V267.308z M320.883,261.225h34.529v-34.516h-34.529V261.225
		L320.883,261.225z"/>
	<path style="fill:#3F4A5A;" d="M402.086,267.308h-46.674v-46.692h46.674V267.308z M361.495,261.225h34.516v-34.516h-34.516V261.225
		z"/>
	<path style="fill:#3F4A5A;" d="M280.274,307.917H233.58v-46.692h46.697v46.692H280.274z M239.672,301.824h34.511v-34.516h-34.511
		V301.824z"/>
	<path style="fill:#3F4A5A;" d="M320.883,307.917h-46.7v-46.692h46.7V307.917z M280.274,301.824h34.516v-34.516h-34.516V301.824z"/>
	<path style="fill:#3F4A5A;" d="M361.495,307.917h-46.702v-46.692h46.702V307.917z M320.883,301.824h34.529v-34.516h-34.529V301.824
		L320.883,301.824z"/>
	<path style="fill:#3F4A5A;" d="M402.086,307.917h-46.674v-46.692h46.674V307.917z M361.495,301.824h34.516v-34.516h-34.516V301.824
		z"/>
</g>
<g>
</g>
<g>
</g>
<g>
</g>
<g>
</g>
<g>
</g>
<g>
</g>
<g>
</g>
<g>
</g>
<g>
</g>
<g>
</g>
<g>
</g>
<g>
</g>
<g>
</g>
<g>
</g>
<g>
</g>
</svg>
