<svg xmlns="http://www.w3.org/2000/svg" viewBox="0 0 290.86 97.55"><defs><style>.cls-1{fill:#3362ac;}.cls-2{fill:#e52328;}.cls-3{fill:#3462ac;}</style></defs><title>Asset 1</title><g id="Layer_2" data-name="Layer 2"><g id="Layer_1-2" data-name="Layer 1"><path class="cls-1" d="M24,3.18a13.71,13.71,0,0,1,4.85,8.13H21.22a7,7,0,0,0-2.6-3.26,7.28,7.28,0,0,0-4.17-1.19A6.37,6.37,0,0,0,9.32,9.19a9.41,9.41,0,0,0-1.95,6.23,9.31,9.31,0,0,0,2,6.21,6.39,6.39,0,0,0,5.13,2.31,7.28,7.28,0,0,0,4.17-1.19,7,7,0,0,0,2.6-3.22h7.67A13.81,13.81,0,0,1,24,27.64a14.57,14.57,0,0,1-9.47,3,14.85,14.85,0,0,1-7.66-1.93,13,13,0,0,1-5.11-5.4A16.93,16.93,0,0,1,0,15.42,17,17,0,0,1,1.8,7.5,13,13,0,0,1,6.91,2.1,14.85,14.85,0,0,1,14.57.17,14.62,14.62,0,0,1,24,3.18Z"/><path class="cls-1" d="M58.84.47v30H51.56V17.92H40.2v12.5H33V.47H40.2v11.6H51.56V.47Z"/><path class="cls-1" d="M85.77,2a14.36,14.36,0,0,1,5.44,5.47,15.64,15.64,0,0,1,2,7.9,15.7,15.7,0,0,1-2,7.92,14.47,14.47,0,0,1-5.47,5.48,15.82,15.82,0,0,1-15.29,0A14.54,14.54,0,0,1,65,23.26a15.7,15.7,0,0,1-2-7.92,15.55,15.55,0,0,1,2-7.9A14.58,14.58,0,0,1,70.43,2,15.92,15.92,0,0,1,85.77,2ZM72.42,9.05a9,9,0,0,0-2.1,6.29,9,9,0,0,0,2.1,6.27,8,8,0,0,0,11.29,0,9,9,0,0,0,2.12-6.27,9,9,0,0,0-2.1-6.27,8.05,8.05,0,0,0-11.31,0Z"/><path class="cls-1" d="M119.19,2a14.29,14.29,0,0,1,5.44,5.47,15.64,15.64,0,0,1,2,7.9,15.7,15.7,0,0,1-2,7.92,14.44,14.44,0,0,1-5.46,5.48,15.84,15.84,0,0,1-15.3,0,14.44,14.44,0,0,1-5.46-5.48,15.7,15.7,0,0,1-2-7.92,15.55,15.55,0,0,1,2-7.9A14.48,14.48,0,0,1,103.85,2a15.92,15.92,0,0,1,15.34,0ZM105.85,9.05a9,9,0,0,0-2.1,6.29,9,9,0,0,0,2.1,6.27,8,8,0,0,0,11.28,0,9,9,0,0,0,2.12-6.27,9,9,0,0,0-2.09-6.27,8.05,8.05,0,0,0-11.31,0Z"/><path class="cls-1" d="M151,26.35a8.49,8.49,0,0,1-3.55,3.18,12.57,12.57,0,0,1-5.7,1.18,13.44,13.44,0,0,1-8.31-2.45,8.9,8.9,0,0,1-3.55-6.87h7.71a4.06,4.06,0,0,0,1.2,2.67,3.74,3.74,0,0,0,2.65,1,3.09,3.09,0,0,0,2.2-.76,2.67,2.67,0,0,0,.81-2,2.62,2.62,0,0,0-.74-1.9,5.81,5.81,0,0,0-1.84-1.25c-.74-.33-1.76-.72-3-1.17A38.24,38.24,0,0,1,134.19,16a8.69,8.69,0,0,1-3.1-2.72,7.85,7.85,0,0,1-1.29-4.68A7.85,7.85,0,0,1,131.16,4a8.61,8.61,0,0,1,3.75-3,13.66,13.66,0,0,1,5.48-1,12.35,12.35,0,0,1,8,2.37,9.07,9.07,0,0,1,3.32,6.53h-7.84a4,4,0,0,0-1.08-2.35,3.17,3.17,0,0,0-2.35-.87,3,3,0,0,0-2,.68,2.46,2.46,0,0,0-.79,2,2.57,2.57,0,0,0,.7,1.8,5.48,5.48,0,0,0,1.76,1.2c.71.32,1.72.71,3.05,1.19a32.77,32.77,0,0,1,4.7,1.93,9,9,0,0,1,3.14,2.77A8,8,0,0,1,152.21,22,8.21,8.21,0,0,1,151,26.35Z"/><path class="cls-1" d="M163.48,6.23V12.5h10.13V18H163.48v6.65h11.4v5.81H156.24V.47h18.64V6.23Z"/><path class="cls-2" d="M194.7,24.87h9.66v5.55h-16.9V.47h7.24Z"/><path class="cls-2" d="M229.63,2a14.36,14.36,0,0,1,5.45,5.46,15.78,15.78,0,0,1,2,7.91,15.7,15.7,0,0,1-2,7.92,14.54,14.54,0,0,1-5.47,5.48,15.82,15.82,0,0,1-15.29,0,14.4,14.4,0,0,1-5.47-5.48,15.7,15.7,0,0,1-2-7.92,15.59,15.59,0,0,1,2-7.91A14.41,14.41,0,0,1,214.3,2a15.9,15.9,0,0,1,15.33,0ZM216.29,9a9,9,0,0,0-2.1,6.3,9,9,0,0,0,2.1,6.27,8,8,0,0,0,11.29,0,9,9,0,0,0,2.12-6.27,9,9,0,0,0-2.1-6.27,7.21,7.21,0,0,0-5.66-2.33A7.28,7.28,0,0,0,216.29,9Z"/><path class="cls-2" d="M246.72.47,254.05,23,261.38.47h7.76l-10.43,30h-9.36L239,.47Z"/><path class="cls-2" d="M279.18,6.23V12.5H289.3V18H279.18v6.65h11.39v5.81H271.93V.47h18.64V6.23Z"/><path class="cls-3" d="M56.21,47.43V97.06H44.12V66l-10.75,31H22.91L12.09,66V97.06H0V47.43H14.78L28.28,82,41.5,47.43Z"/><path class="cls-3" d="M76.64,47.07v50H64.55v-50Z"/><path class="cls-3" d="M118.88,90.27a14.15,14.15,0,0,1-5.94,5.31,20.89,20.89,0,0,1-9.51,2q-8.42,0-13.85-4.1A14.85,14.85,0,0,1,83.64,82H96.5a6.8,6.8,0,0,0,2,4.46,6.21,6.21,0,0,0,4.42,1.62,5.1,5.1,0,0,0,3.67-1.27,4.83,4.83,0,0,0,.11-6.58,9.66,9.66,0,0,0-3.08-2.08q-1.83-.81-5.09-2a63.41,63.41,0,0,1-7.74-3.14,14.31,14.31,0,0,1-5.16-4.53,13.05,13.05,0,0,1-2.15-7.81A13.15,13.15,0,0,1,85.76,53,14.4,14.4,0,0,1,92,48a22.78,22.78,0,0,1,9.16-1.73q8.34,0,13.26,4A15.15,15.15,0,0,1,120,61.14H106.9a6.72,6.72,0,0,0-1.81-3.92,5.27,5.27,0,0,0-3.92-1.45,5.08,5.08,0,0,0-3.43,1.13,4.66,4.66,0,0,0-.14,6.33,9.09,9.09,0,0,0,2.93,2q1.77.77,5.09,2a56.15,56.15,0,0,1,7.85,3.22,15,15,0,0,1,5.23,4.63A13.26,13.26,0,0,1,120.9,83,13.79,13.79,0,0,1,118.88,90.27Z"/><path class="cls-3" d="M161.51,90.27a14.15,14.15,0,0,1-5.94,5.31,20.89,20.89,0,0,1-9.51,2q-8.4,0-13.85-4.1A14.85,14.85,0,0,1,126.27,82h12.87a6.79,6.79,0,0,0,2,4.46,6.23,6.23,0,0,0,4.42,1.62,5.15,5.15,0,0,0,3.68-1.27,4.47,4.47,0,0,0,1.34-3.39,4.37,4.37,0,0,0-1.24-3.19,9.61,9.61,0,0,0-3.07-2.08q-1.84-.81-5.09-2a63,63,0,0,1-7.75-3.14,14.31,14.31,0,0,1-5.16-4.53,13.05,13.05,0,0,1-2.15-7.81A13.15,13.15,0,0,1,128.39,53a14.38,14.38,0,0,1,6.26-5,22.7,22.7,0,0,1,9.15-1.73q8.34,0,13.26,4a15.15,15.15,0,0,1,5.55,10.88H149.53a6.77,6.77,0,0,0-1.8-3.92,5.31,5.31,0,0,0-3.93-1.45,5.1,5.1,0,0,0-3.43,1.13,4.69,4.69,0,0,0-.14,6.33,9,9,0,0,0,2.94,2q1.76.77,5.09,2a56.47,56.47,0,0,1,7.84,3.22,15.15,15.15,0,0,1,5.24,4.63A13.25,13.25,0,0,1,163.53,83,13.7,13.7,0,0,1,161.51,90.27Z"/><path class="cls-3" d="M182.33,47.07v50H170.24v-50Z"/><path class="cls-3" d="M227.26,49.58a24.12,24.12,0,0,1,9.09,9.12,26.24,26.24,0,0,1,3.32,13.19,26.12,26.12,0,0,1-3.36,13.22,24.17,24.17,0,0,1-9.12,9.16,26.46,26.46,0,0,1-25.52,0,24.17,24.17,0,0,1-9.12-9.16,26.12,26.12,0,0,1-3.36-13.22,26,26,0,0,1,3.36-13.19,24.34,24.34,0,0,1,9.12-9.12,26.6,26.6,0,0,1,25.59,0ZM205,61.39q-3.5,3.86-3.5,10.5T205,82.35a13.35,13.35,0,0,0,18.84,0q3.54-3.88,3.54-10.46t-3.5-10.46a13.45,13.45,0,0,0-18.88,0Z"/><path class="cls-3" d="M290.86,97.06H278.77L258.55,66.38V97.06H246.46v-50h12.09l20.22,31v-31h12.09Z"/></g></g></svg>