<svg xmlns="http://www.w3.org/2000/svg" viewBox="0 0 290.86 97.54"><defs><style>.cls-1{fill:#997a59;}</style></defs><title>Asset 2</title><g id="Layer_2" data-name="Layer 2"><g id="Layer_1-2" data-name="Layer 1"><path class="cls-1" d="M24.47,3.18a13.75,13.75,0,0,1,4.85,8.13H21.65a7,7,0,0,0-2.6-3.26,7.28,7.28,0,0,0-4.17-1.19A6.34,6.34,0,0,0,9.76,9.19a9.38,9.38,0,0,0-1.95,6.22,9.31,9.31,0,0,0,2,6.21,6.37,6.37,0,0,0,5.12,2.3,7.27,7.27,0,0,0,4.17-1.18,7.06,7.06,0,0,0,2.6-3.22h7.67a13.86,13.86,0,0,1-4.85,8.11,14.56,14.56,0,0,1-9.46,3,15,15,0,0,1-7.67-1.93,13,13,0,0,1-5.1-5.4,16.93,16.93,0,0,1-1.8-7.92A16.92,16.92,0,0,1,2.24,7.5a13,13,0,0,1,5.1-5.4A14.89,14.89,0,0,1,15,.17,14.61,14.61,0,0,1,24.47,3.18Z"/><path class="cls-1" d="M59.25.47V30.4H52V17.91H40.62V30.4H33.38V.47h7.24v11.6H52V.47Z"/><path class="cls-1" d="M86.16,2A14.34,14.34,0,0,1,91.6,7.43a15.64,15.64,0,0,1,2,7.9,15.7,15.7,0,0,1-2,7.92,14.44,14.44,0,0,1-5.46,5.48,15.82,15.82,0,0,1-15.29,0,14.44,14.44,0,0,1-5.46-5.48,15.7,15.7,0,0,1-2-7.92,15.55,15.55,0,0,1,2-7.9A14.46,14.46,0,0,1,70.83,2,15.9,15.9,0,0,1,86.16,2ZM72.82,9a9,9,0,0,0-2.09,6.29,9,9,0,0,0,2.09,6.26,8,8,0,0,0,11.29,0,9,9,0,0,0,2.11-6.26,9,9,0,0,0-2.09-6.27A8.05,8.05,0,0,0,72.82,9Z"/><path class="cls-1" d="M119.57,2A14.34,14.34,0,0,1,125,7.43a15.74,15.74,0,0,1,2,7.9,15.7,15.7,0,0,1-2,7.92,14.47,14.47,0,0,1-5.47,5.48,15.8,15.8,0,0,1-15.28,0,14.44,14.44,0,0,1-5.46-5.48,15.7,15.7,0,0,1-2-7.92,15.55,15.55,0,0,1,2-7.9A14.46,14.46,0,0,1,104.24,2a15.9,15.9,0,0,1,15.33,0ZM106.23,9a9,9,0,0,0-2.1,6.29,9,9,0,0,0,2.1,6.26,8,8,0,0,0,11.28,0,9,9,0,0,0,2.12-6.26,9,9,0,0,0-2.1-6.27,8,8,0,0,0-11.3,0Z"/><path class="cls-1" d="M151.36,26.34a8.54,8.54,0,0,1-3.55,3.17,12.57,12.57,0,0,1-5.7,1.19,13.41,13.41,0,0,1-8.3-2.46,8.86,8.86,0,0,1-3.55-6.86H138a4.12,4.12,0,0,0,1.21,2.67,3.7,3.7,0,0,0,2.65,1,3.07,3.07,0,0,0,2.2-.76,2.68,2.68,0,0,0,.8-2,2.62,2.62,0,0,0-.74-1.91,5.84,5.84,0,0,0-1.84-1.24c-.73-.33-1.75-.72-3.05-1.17A38,38,0,0,1,134.56,16a8.66,8.66,0,0,1-3.1-2.71,7.85,7.85,0,0,1-1.29-4.68A7.85,7.85,0,0,1,131.53,4a8.61,8.61,0,0,1,3.75-3,13.66,13.66,0,0,1,5.48-1,12.3,12.3,0,0,1,7.94,2.37A9,9,0,0,1,152,8.89h-7.83a4,4,0,0,0-1.08-2.35,3.17,3.17,0,0,0-2.35-.87,3.06,3.06,0,0,0-2.06.68,2.5,2.5,0,0,0-.78,2,2.5,2.5,0,0,0,.7,1.8,5.25,5.25,0,0,0,1.76,1.21c.7.31,1.72.7,3.05,1.18a33.77,33.77,0,0,1,4.7,1.93,9.14,9.14,0,0,1,3.13,2.77A8,8,0,0,1,152.57,22,8.21,8.21,0,0,1,151.36,26.34Z"/><path class="cls-1" d="M163.83,6.22v6.27H174V18H163.83V24.6h11.39v5.8H156.59V.47h18.63V6.22Z"/><path class="cls-1" d="M195,24.85h9.65V30.4H187.8V.47H195Z"/><path class="cls-1" d="M230,2a14.34,14.34,0,0,1,5.44,5.46,15.64,15.64,0,0,1,2,7.9,15.7,15.7,0,0,1-2,7.92,14.44,14.44,0,0,1-5.46,5.48,15.82,15.82,0,0,1-15.29,0,14.44,14.44,0,0,1-5.46-5.48,15.7,15.7,0,0,1-2-7.92,15.55,15.55,0,0,1,2-7.9A14.46,14.46,0,0,1,214.62,2,15.9,15.9,0,0,1,230,2ZM216.61,9a9,9,0,0,0-2.09,6.29,9,9,0,0,0,2.09,6.26,8,8,0,0,0,11.29,0A9,9,0,0,0,230,15.33a9,9,0,0,0-2.09-6.27,8.05,8.05,0,0,0-11.31,0Z"/><path class="cls-1" d="M247,.47,254.36,23,261.68.47h7.75L259,30.4h-9.36L239.29.47Z"/><path class="cls-1" d="M279.47,6.22v6.27h10.12V18H279.47V24.6h11.39v5.8H272.23V.47h18.63V6.22Z"/><path class="cls-1" d="M56.21,47.41V97H44.12V66L33.37,97H22.91L12.09,65.94V97H0V47.41H14.78L28.28,82,41.5,47.41Z"/><path class="cls-1" d="M76.64,47.06V97H64.55v-50Z"/><path class="cls-1" d="M118.88,90.26a14.2,14.2,0,0,1-5.94,5.3,20.89,20.89,0,0,1-9.51,2q-8.42,0-13.85-4.1A14.87,14.87,0,0,1,83.64,82H96.5a6.8,6.8,0,0,0,2,4.46,6.21,6.21,0,0,0,4.42,1.62,5.1,5.1,0,0,0,3.67-1.27,4.82,4.82,0,0,0,.11-6.57,9.68,9.68,0,0,0-3.08-2.09q-1.83-.81-5.09-1.94A64.9,64.9,0,0,1,90.81,73a14.28,14.28,0,0,1-5.16-4.52A13.1,13.1,0,0,1,83.5,60.7,13.12,13.12,0,0,1,85.76,53,14.42,14.42,0,0,1,92,48a23,23,0,0,1,9.16-1.73q8.34,0,13.26,4A15.15,15.15,0,0,1,120,61.13H106.9a6.75,6.75,0,0,0-1.81-3.93,5.31,5.31,0,0,0-3.92-1.45,5,5,0,0,0-3.43,1.14,4.65,4.65,0,0,0-.14,6.32,8.94,8.94,0,0,0,2.93,2q1.77.78,5.09,2a55.06,55.06,0,0,1,7.85,3.21,15.06,15.06,0,0,1,5.23,4.64A13.2,13.2,0,0,1,120.9,83,13.85,13.85,0,0,1,118.88,90.26Z"/><path class="cls-1" d="M161.51,90.26a14.2,14.2,0,0,1-5.94,5.3,20.89,20.89,0,0,1-9.51,2q-8.4,0-13.85-4.1A14.87,14.87,0,0,1,126.27,82h12.87a6.79,6.79,0,0,0,2,4.46,6.23,6.23,0,0,0,4.42,1.62,5.15,5.15,0,0,0,3.68-1.27,4.47,4.47,0,0,0,1.34-3.39,4.37,4.37,0,0,0-1.24-3.18,9.63,9.63,0,0,0-3.07-2.09q-1.84-.81-5.09-1.94A64.44,64.44,0,0,1,133.44,73a14.28,14.28,0,0,1-5.16-4.52,13.1,13.1,0,0,1-2.15-7.82,13.12,13.12,0,0,1,2.26-7.7,14.4,14.4,0,0,1,6.26-5,22.87,22.87,0,0,1,9.15-1.73q8.34,0,13.26,4a15.15,15.15,0,0,1,5.55,10.89H149.53a6.8,6.8,0,0,0-1.8-3.93,5.35,5.35,0,0,0-3.93-1.45,5.05,5.05,0,0,0-3.43,1.14,4.68,4.68,0,0,0-.14,6.32,8.88,8.88,0,0,0,2.94,2q1.76.78,5.09,2a55.37,55.37,0,0,1,7.84,3.21,15.18,15.18,0,0,1,5.24,4.64A13.2,13.2,0,0,1,163.53,83,13.76,13.76,0,0,1,161.51,90.26Z"/><path class="cls-1" d="M182.33,47.06V97H170.24v-50Z"/><path class="cls-1" d="M227.26,49.57a24,24,0,0,1,9.09,9.12,26.2,26.2,0,0,1,3.32,13.18,26.1,26.1,0,0,1-3.36,13.22,24.1,24.1,0,0,1-9.12,9.16,26.39,26.39,0,0,1-25.52,0,24.1,24.1,0,0,1-9.12-9.16,26.1,26.1,0,0,1-3.36-13.22,25.92,25.92,0,0,1,3.36-13.18,24.2,24.2,0,0,1,9.12-9.12,26.53,26.53,0,0,1,25.59,0ZM205,61.38q-3.5,3.84-3.5,10.49T205,82.34a13.35,13.35,0,0,0,18.84,0q3.54-3.89,3.54-10.47t-3.5-10.46a13.44,13.44,0,0,0-18.88,0Z"/><path class="cls-1" d="M290.86,97H278.77L258.55,66.36V97H246.46v-50h12.09l20.22,31v-31h12.09Z"/></g></g></svg>